<?xml version="1.0" encoding="UTF-8" standalone="no"?>
<!-- Generated by graphviz version 2.38.0 (20140413.2041)
 -->

<!-- Title: G Pages: 1 -->

<svg
   xmlns:dc="http://purl.org/dc/elements/1.1/"
   xmlns:cc="http://creativecommons.org/ns#"
   xmlns:rdf="http://www.w3.org/1999/02/22-rdf-syntax-ns#"
   xmlns:svg="http://www.w3.org/2000/svg"
   xmlns="http://www.w3.org/2000/svg"
   xmlns:sodipodi="http://sodipodi.sourceforge.net/DTD/sodipodi-0.dtd"
   xmlns:inkscape="http://www.inkscape.org/namespaces/inkscape"
   width="1566pt"
   height="888pt"
   viewBox="0.00 0.00 1566.09 888.00"
   version="1.1"
   id="svg4473"
   sodipodi:docname="classes.svg"
   inkscape:version="0.92.3 (2405546, 2018-03-11)">
  <metadata
     id="metadata4479">
    <rdf:RDF>
      <cc:Work
         rdf:about="">
        <dc:format>image/svg+xml</dc:format>
        <dc:type
           rdf:resource="http://purl.org/dc/dcmitype/StillImage" />
      </cc:Work>
    </rdf:RDF>
  </metadata>
  <defs
     id="defs4477" />
  <sodipodi:namedview
     pagecolor="#ffffff"
     bordercolor="#666666"
     borderopacity="1"
     objecttolerance="10"
     gridtolerance="10"
     guidetolerance="10"
     inkscape:pageopacity="0"
     inkscape:pageshadow="2"
     inkscape:window-width="1920"
     inkscape:window-height="1000"
     id="namedview4475"
     showgrid="false"
     inkscape:zoom="0.65625"
     inkscape:cx="1044"
     inkscape:cy="896.7619"
     inkscape:window-x="-11"
     inkscape:window-y="-11"
     inkscape:window-maximized="1"
     inkscape:current-layer="graph0" />
  <g
     id="graph0"
     class="graph"
     transform="scale(1 1) rotate(0) translate(4 884)">
    <title
       id="title4097">G</title>
    <polygon
       points="1562.09,-884 1562.09,4 -4,4 -4,-884 "
       id="polygon4099"
       transform="translate(184.01057,11.429229)"
       style="fill:#ffffff;stroke:none" />
    <g
       id="clust1"
       class="cluster">
      <title
         id="title4101">cluster_Global</title>
      <path
         fill="none"
         stroke="gray"
         d="M220.087,-44C220.087,-44 1538.09,-44 1538.09,-44 1544.09,-44 1550.09,-50 1550.09,-56 1550.09,-56 1550.09,-860 1550.09,-860 1550.09,-866 1544.09,-872 1538.09,-872 1538.09,-872 220.087,-872 220.087,-872 214.087,-872 208.087,-866 208.087,-860 208.087,-860 208.087,-56 208.087,-56 208.087,-50 214.087,-44 220.087,-44"
         id="path4103" />
      <text
         text-anchor="middle"
         x="879.087"
         y="-859.2"
         font-family="Times New Roman,serif"
         font-size="11.00"
         fill="gray"
         id="text4105">Global</text>
    </g>
    <g
       id="clust2"
       class="cluster">
      <title
         id="title4108">cluster_\VersatileCollections</title>
      <path
         fill="none"
         stroke="gray"
         d="M228.087,-52C228.087,-52 1530.09,-52 1530.09,-52 1536.09,-52 1542.09,-58 1542.09,-64 1542.09,-64 1542.09,-832 1542.09,-832 1542.09,-838 1536.09,-844 1530.09,-844 1530.09,-844 228.087,-844 228.087,-844 222.087,-844 216.087,-838 216.087,-832 216.087,-832 216.087,-64 216.087,-64 216.087,-58 222.087,-52 228.087,-52"
         id="path4110" />
      <text
         text-anchor="middle"
         x="879.087"
         y="-831.2"
         font-family="Times New Roman,serif"
         font-size="11.00"
         fill="gray"
         id="text4112">VersatileCollections</text>
    </g>
    <g
       id="clust3"
       class="cluster">
      <title
         id="title4115">cluster_\VersatileCollections\Exceptions</title>
      <path
         fill="none"
         stroke="gray"
         d="M1231.09,-160C1231.09,-160 1476.09,-160 1476.09,-160 1482.09,-160 1488.09,-166 1488.09,-172 1488.09,-172 1488.09,-598 1488.09,-598 1488.09,-604 1482.09,-610 1476.09,-610 1476.09,-610 1231.09,-610 1231.09,-610 1225.09,-610 1219.09,-604 1219.09,-598 1219.09,-598 1219.09,-172 1219.09,-172 1219.09,-166 1225.09,-160 1231.09,-160"
         id="path4117" />
      <text
         text-anchor="middle"
         x="1353.59"
         y="-597.2"
         font-family="Times New Roman,serif"
         font-size="11.00"
         fill="gray"
         id="text4119">Exceptions</text>
    </g>
    <!-- \\VersatileCollections\\Exceptions\\InvalidKeyException -->
    <g
       id="node1"
       class="node">
      <title
         id="title4122">\\VersatileCollections\\Exceptions\\InvalidKeyException</title>
      <polygon
         fill="none"
         stroke="black"
         points="1426.09,-582 1281.09,-582 1281.09,-546 1426.09,-546 1426.09,-582"
         id="polygon4124" />
      <text
         text-anchor="middle"
         x="1353.59"
         y="-561.2"
         font-family="Courier,monospace"
         font-size="11.00"
         id="text4126">InvalidKeyException</text>
    </g>
    <!-- \\Exception -->
    <g
       id="node25"
       class="node">
      <title
         id="title4129">\\Exception</title>
      <ellipse
         fill="none"
         stroke="black"
         cx="1032.09"
         cy="-18"
         rx="50.0912"
         ry="18"
         id="ellipse4131" />
      <text
         text-anchor="middle"
         x="1032.09"
         y="-14.3"
         font-family="Times New Roman,serif"
         font-size="14.00"
         fill="gray"
         id="text4133">\Exception</text>
    </g>
    <!-- \\VersatileCollections\\Exceptions\\InvalidKeyException&#45;&gt;\\Exception -->
    <g
       id="edge2"
       class="edge">
      <title
         id="title4136">\\VersatileCollections\\Exceptions\\InvalidKeyException-&gt;\\Exception</title>
      <path
         fill="none"
         stroke="black"
         d="M1281.08,-571.941C1244,-571.932 1200.79,-564.786 1173.09,-537 1017.99,-381.424 1234.16,-222.782 1101.09,-48 1096.25,-41.6477 1089.78,-36.6135 1082.75,-32.6314"
         id="path4138" />
      <polygon
         fill="none"
         stroke="black"
         points="1084.13,-29.4138 1073.62,-28.13 1081.04,-35.692 1084.13,-29.4138"
         id="polygon4140" />
    </g>
    <!-- \\VersatileCollections\\Exceptions\\AddConflictingMethodException -->
    <g
       id="node2"
       class="node">
      <title
         id="title4143">\\VersatileCollections\\Exceptions\\AddConflictingMethodException</title>
      <polygon
         fill="none"
         stroke="black"
         points="1459.59,-528 1247.59,-528 1247.59,-492 1459.59,-492 1459.59,-528"
         id="polygon4145" />
      <text
         text-anchor="middle"
         x="1353.59"
         y="-507.2"
         font-family="Courier,monospace"
         font-size="11.00"
         id="text4147">AddConflictingMethodException</text>
    </g>
    <!-- \\VersatileCollections\\Exceptions\\AddConflictingMethodException&#45;&gt;\\Exception -->
    <g
       id="edge3"
       class="edge">
      <title
         id="title4150">\\VersatileCollections\\Exceptions\\AddConflictingMethodException-&gt;\\Exception</title>
      <path
         fill="none"
         stroke="black"
         d="M1247.19,-515.461C1219.91,-511.632 1192.73,-502.354 1173.09,-483 1033.5,-345.457 1221.18,-202.85 1101.09,-48 1096.19,-41.6911 1089.69,-36.6793 1082.65,-32.7063"
         id="path4152" />
      <polygon
         fill="none"
         stroke="black"
         points="1084.03,-29.4862 1073.51,-28.2097 1080.94,-35.7665 1084.03,-29.4862"
         id="polygon4154" />
    </g>
    <!-- \\VersatileCollections\\Exceptions\\InvalidCollectionOperationException -->
    <g
       id="node3"
       class="node">
      <title
         id="title4157">\\VersatileCollections\\Exceptions\\InvalidCollectionOperationException</title>
      <polygon
         fill="none"
         stroke="black"
         points="1480.09,-474 1227.09,-474 1227.09,-438 1480.09,-438 1480.09,-474"
         id="polygon4159" />
      <text
         text-anchor="middle"
         x="1353.59"
         y="-453.2"
         font-family="Courier,monospace"
         font-size="11.00"
         id="text4161">InvalidCollectionOperationException</text>
    </g>
    <!-- \\VersatileCollections\\Exceptions\\InvalidCollectionOperationException&#45;&gt;\\Exception -->
    <g
       id="edge5"
       class="edge">
      <title
         id="title4164">\\VersatileCollections\\Exceptions\\InvalidCollectionOperationException-&gt;\\Exception</title>
      <path
         fill="none"
         stroke="black"
         d="M1227.02,-457.187C1206.96,-452.079 1187.95,-443.32 1173.09,-429 1048.97,-309.449 1208.24,-182.965 1101.09,-48 1096.12,-41.7471 1089.58,-36.7643 1082.53,-32.803"
         id="path4166" />
      <polygon
         fill="none"
         stroke="black"
         points="1083.9,-29.5797 1073.38,-28.3127 1080.82,-35.8628 1083.9,-29.5797"
         id="polygon4168" />
    </g>
    <!-- \\VersatileCollections\\Exceptions\\MissingMultiSortParameterFieldName -->
    <g
       id="node4"
       class="node">
      <title
         id="title4171">\\VersatileCollections\\Exceptions\\MissingMultiSortParameterFieldName</title>
      <polygon
         fill="none"
         stroke="black"
         points="1476.59,-420 1230.59,-420 1230.59,-384 1476.59,-384 1476.59,-420"
         id="polygon4173" />
      <text
         text-anchor="middle"
         x="1353.59"
         y="-399.2"
         font-family="Courier,monospace"
         font-size="11.00"
         id="text4175">MissingMultiSortParameterFieldName</text>
    </g>
    <!-- \\VersatileCollections\\Exceptions\\MissingMultiSortParameterFieldName&#45;&gt;\\Exception -->
    <g
       id="edge6"
       class="edge">
      <title
         id="title4178">\\VersatileCollections\\Exceptions\\MissingMultiSortParameterFieldName-&gt;\\Exception</title>
      <path
         fill="none"
         stroke="black"
         d="M1230.14,-403.488C1209.04,-398.527 1188.86,-389.741 1173.09,-375 1064.37,-273.379 1195.35,-163.149 1101.09,-48 1096.03,-41.8222 1089.44,-36.8782 1082.36,-32.9324"
         id="path4180" />
      <polygon
         fill="none"
         stroke="black"
         points="1083.73,-29.705 1073.21,-28.4506 1080.65,-35.9918 1083.73,-29.705"
         id="polygon4182" />
    </g>
    <!-- \\VersatileCollections\\Exceptions\\InvalidItemException -->
    <g
       id="node5"
       class="node">
      <title
         id="title4185">\\VersatileCollections\\Exceptions\\InvalidItemException</title>
      <polygon
         fill="none"
         stroke="black"
         points="1429.59,-366 1277.59,-366 1277.59,-330 1429.59,-330 1429.59,-366"
         id="polygon4187" />
      <text
         text-anchor="middle"
         x="1353.59"
         y="-345.2"
         font-family="Courier,monospace"
         font-size="11.00"
         id="text4189">InvalidItemException</text>
    </g>
    <!-- \\VersatileCollections\\Exceptions\\InvalidItemException&#45;&gt;\\Exception -->
    <g
       id="edge14"
       class="edge">
      <title
         id="title4192">\\VersatileCollections\\Exceptions\\InvalidItemException-&gt;\\Exception</title>
      <path
         fill="none"
         stroke="black"
         d="M1277.37,-354.592C1241.75,-353.634 1201,-346.04 1173.09,-321 1079.67,-237.216 1182.55,-143.44 1101.09,-48 1095.9,-41.9275 1089.25,-37.0379 1082.15,-33.1141"
         id="path4194" />
      <polygon
         fill="none"
         stroke="black"
         points="1083.5,-29.8811 1072.98,-28.6442 1080.43,-36.173 1083.5,-29.8811"
         id="polygon4196" />
    </g>
    <!-- \\VersatileCollections\\Exceptions\\InvalidMultiSortParameterException -->
    <g
       id="node6"
       class="node">
      <title
         id="title4199">\\VersatileCollections\\Exceptions\\InvalidMultiSortParameterException</title>
      <polygon
         fill="none"
         stroke="black"
         points="1476.59,-312 1230.59,-312 1230.59,-276 1476.59,-276 1476.59,-312"
         id="polygon4201" />
      <text
         text-anchor="middle"
         x="1353.59"
         y="-291.2"
         font-family="Courier,monospace"
         font-size="11.00"
         id="text4203">InvalidMultiSortParameterException</text>
    </g>
    <!-- \\VersatileCollections\\Exceptions\\InvalidMultiSortParameterException&#45;&gt;\\Exception -->
    <g
       id="edge15"
       class="edge">
      <title
         id="title4206">\\VersatileCollections\\Exceptions\\InvalidMultiSortParameterException-&gt;\\Exception</title>
      <path
         fill="none"
         stroke="black"
         d="M1230.38,-293.964C1209.5,-289.087 1189.34,-280.724 1173.09,-267 1094.8,-200.898 1169.91,-123.906 1101.09,-48 1095.66,-42.0179 1088.83,-37.1678 1081.59,-33.2537"
         id="path4208" />
      <polygon
         fill="none"
         stroke="black"
         points="1082.83,-29.9621 1072.3,-28.7817 1079.79,-36.2703 1082.83,-29.9621"
         id="polygon4210" />
    </g>
    <!-- \\VersatileCollections\\Exceptions\\InvalidSortType -->
    <g
       id="node7"
       class="node">
      <title
         id="title4213">\\VersatileCollections\\Exceptions\\InvalidSortType</title>
      <polygon
         fill="none"
         stroke="black"
         points="1412.59,-258 1294.59,-258 1294.59,-222 1412.59,-222 1412.59,-258"
         id="polygon4215" />
      <text
         text-anchor="middle"
         x="1353.59"
         y="-237.2"
         font-family="Courier,monospace"
         font-size="11.00"
         id="text4217">InvalidSortType</text>
    </g>
    <!-- \\VersatileCollections\\Exceptions\\InvalidSortType&#45;&gt;\\Exception -->
    <g
       id="edge16"
       class="edge">
      <title
         id="title4220">\\VersatileCollections\\Exceptions\\InvalidSortType-&gt;\\Exception</title>
      <path
         fill="none"
         stroke="black"
         d="M1294.49,-244.955C1256.34,-245.161 1207.34,-239.276 1173.09,-213 1109.6,-164.304 1157.55,-104.69 1101.09,-48 1095.39,-42.2788 1088.41,-37.562 1081.12,-33.7005"
         id="path4222" />
      <polygon
         fill="none"
         stroke="black"
         points="1082.33,-30.3986 1071.8,-29.2554 1079.32,-36.7175 1082.33,-30.3986"
         id="polygon4224" />
    </g>
    <!-- \\VersatileCollections\\Exceptions\\NonExistentItemException -->
    <g
       id="node8"
       class="node">
      <title
         id="title4227">\\VersatileCollections\\Exceptions\\NonExistentItemException</title>
      <polygon
         fill="none"
         stroke="black"
         points="1443.09,-204 1264.09,-204 1264.09,-168 1443.09,-168 1443.09,-204"
         id="polygon4229" />
      <text
         text-anchor="middle"
         x="1353.59"
         y="-183.2"
         font-family="Courier,monospace"
         font-size="11.00"
         id="text4231">NonExistentItemException</text>
    </g>
    <!-- \\VersatileCollections\\Exceptions\\NonExistentItemException&#45;&gt;\\Exception -->
    <g
       id="edge18"
       class="edge">
      <title
         id="title4234">\\VersatileCollections\\Exceptions\\NonExistentItemException-&gt;\\Exception</title>
      <path
         fill="none"
         stroke="black"
         d="M1263.79,-190.316C1233.05,-188.032 1199.67,-180.991 1173.09,-164 1121.96,-131.326 1146.89,-87.8006 1101.09,-48 1094.79,-42.5245 1087.33,-37.9005 1079.7,-34.0473"
         id="path4236" />
      <polygon
         fill="none"
         stroke="black"
         points="1080.92,-30.7552 1070.37,-29.7242 1077.97,-37.1059 1080.92,-30.7552"
         id="polygon4238" />
    </g>
    <!-- \\VersatileCollections\\FloatsCollection -->
    <g
       id="node9"
       class="node">
      <title
         id="title4241">\\VersatileCollections\\FloatsCollection</title>
      <polygon
         fill="none"
         stroke="black"
         points="1416.09,-762 1291.09,-762 1291.09,-726 1416.09,-726 1416.09,-762"
         id="polygon4243" />
      <text
         text-anchor="middle"
         x="1353.59"
         y="-741.2"
         font-family="Courier,monospace"
         font-size="11.00"
         id="text4245">FloatsCollection</text>
    </g>
    <!-- \\VersatileCollections\\NumericsCollection -->
    <g
       id="node13"
       class="node"
       transform="translate(94.533785,25.323655)">
      <title
         id="title4248">\\VersatileCollections\\NumericsCollection</title>
      <polygon
         points="1101.09,-735 963.087,-735 963.087,-699 1101.09,-699 "
         id="polygon4250"
         style="fill:none;stroke:#000000" />
      <text
         x="1032.09"
         y="-714.20001"
         font-size="11.00"
         id="text4252"
         style="font-size:11px;font-family:Courier, monospace;text-anchor:middle">NumericsCollection</text>
    </g>
    <!-- \\VersatileCollections\\FloatsCollection&#45;&gt;\\VersatileCollections\\NumericsCollection -->
    <g
       id="edge1"
       class="edge"
       transform="matrix(0.50266111,0,0,1.0204748,642.12353,27.872837)">
      <title
         id="title4255">\\VersatileCollections\\FloatsCollection-&gt;\\VersatileCollections\\NumericsCollection</title>
      <path
         d="m 1290.98,-738.794 c -51.21,4.328 -124.39,10.512 -179.73,15.188"
         id="path4257"
         inkscape:connector-curvature="0"
         style="fill:none;stroke:#000000" />
      <polygon
         points="1110.81,-727.081 1111.4,-720.105 1101.14,-722.751 "
         id="polygon4259"
         style="fill:none;stroke:#000000" />
    </g>
    <!-- \\VersatileCollections\\ArraysCollection -->
    <g
       id="node10"
       class="node"
       transform="translate(92.576749,1.1429228)">
      <title
         id="title4262">\\VersatileCollections\\ArraysCollection</title>
      <polygon
         points="756.087,-816 756.087,-780 881.087,-780 881.087,-816 "
         id="polygon4264"
         style="fill:none;stroke:#000000" />
      <text
         x="818.58698"
         y="-795.20001"
         font-size="11.00"
         id="text4266"
         style="font-size:11px;font-family:Courier, monospace;text-anchor:middle">ArraysCollection</text>
    </g>
    <!-- \\VersatileCollections\\StrictlyTypedCollectionInterface -->
    <g
       id="node21"
       class="node"
       transform="translate(96.005517,4.5716913)">
      <title
         id="title4269">\\VersatileCollections\\StrictlyTypedCollectionInterface</title>
      <polygon
         points="441.087,-708 441.087,-672 674.087,-672 674.087,-708 "
         id="polygon4271"
         style="fill:none;stroke:#000000" />
      <text
         x="557.58698"
         y="-687.20001"
         font-size="11.00"
         id="text4273"
         style="font-size:11px;font-family:Courier, monospace;text-anchor:middle">StrictlyTypedCollectionInterface</text>
    </g>
    <!-- \\VersatileCollections\\ArraysCollection&#45;&gt;\\VersatileCollections\\StrictlyTypedCollectionInterface -->
    <g
       id="edge4"
       class="edge"
       transform="matrix(1.1289426,0,0,1.2523917,-5.8297302,179.12044)">
      <title
         id="title4276">\\VersatileCollections\\ArraysCollection-&gt;\\VersatileCollections\\StrictlyTypedCollectionInterface</title>
      <path
         d="m 764.499,-779.892 c -6.327,2.722 -12.598,5.698 -18.412,8.892 -35.06,19.257 -35.752,37.087 -72,54 -4.154,1.938 -8.458,3.743 -12.856,5.424"
         id="path4278"
         inkscape:connector-curvature="0"
         style="fill:none;stroke:#000000;stroke-dasharray:1, 5" />
      <polygon
         points="662.072,-708.16 651.477,-708.092 659.717,-714.752 "
         id="polygon4280"
         style="fill:none;stroke:#000000" />
    </g>
    <!-- \\VersatileCollections\\MultiSortParameters -->
    <g
       id="node11"
       class="node">
      <title
         id="title4283">\\VersatileCollections\\MultiSortParameters</title>
      <polygon
         fill="none"
         stroke="black"
         points="1426.09,-708 1281.09,-708 1281.09,-672 1426.09,-672 1426.09,-708"
         id="polygon4285" />
      <text
         text-anchor="middle"
         x="1353.59"
         y="-687.2"
         font-family="Courier,monospace"
         font-size="11.00"
         id="text4287">MultiSortParameters</text>
    </g>
    <!-- \\VersatileCollections\\SortType -->
    <g
       id="node12"
       class="node">
      <title
         id="title4290">\\VersatileCollections\\SortType</title>
      <polygon
         fill="none"
         stroke="black"
         points="1389.09,-654 1318.09,-654 1318.09,-618 1389.09,-618 1389.09,-654"
         id="polygon4292" />
      <text
         text-anchor="middle"
         x="1353.59"
         y="-633.2"
         font-family="Courier,monospace"
         font-size="11.00"
         id="text4294">SortType</text>
    </g>
    <!-- \\VersatileCollections\\ScalarsCollection -->
    <g
       id="node19"
       class="node"
       transform="translate(98.60286,-3.721628)">
      <title
         id="title4297">\\VersatileCollections\\ScalarsCollection</title>
      <polygon
         points="753.087,-672 884.087,-672 884.087,-708 753.087,-708 "
         id="polygon4299"
         style="fill:none;stroke:#000000" />
      <text
         x="818.58698"
         y="-687.20001"
         font-size="11.00"
         id="text4301"
         style="font-size:11px;font-family:Courier, monospace;text-anchor:middle">ScalarsCollection</text>
    </g>
    <!-- \\VersatileCollections\\NumericsCollection&#45;&gt;\\VersatileCollections\\ScalarsCollection -->
    <g
       id="edge7"
       class="edge"
       transform="translate(96.510853,16.931436)">
      <title
         id="title4304">\\VersatileCollections\\NumericsCollection-&gt;\\VersatileCollections\\ScalarsCollection</title>
      <path
         d="m 963.002,-708.308 c -21.886,2.794 -46.249,5.904 -68.592,8.756"
         id="path4306"
         inkscape:connector-curvature="0"
         style="fill:none;stroke:#000000" />
      <polygon
         points="893.779,-703 894.666,-696.056 884.303,-698.262 "
         id="polygon4308"
         style="fill:none;stroke:#000000" />
    </g>
    <!-- \\VersatileCollections\\StringsCollection -->
    <g
       id="node14"
       class="node"
       transform="translate(99.434286,10.286306)">
      <title
         id="title4311">\\VersatileCollections\\StringsCollection</title>
      <polygon
         points="1097.59,-753 1097.59,-789 966.587,-789 966.587,-753 "
         id="polygon4313"
         style="fill:none;stroke:#000000" />
      <text
         x="1032.09"
         y="-768.20001"
         font-size="11.00"
         id="text4315"
         style="font-size:11px;font-family:Courier, monospace;text-anchor:middle">StringsCollection</text>
    </g>
    <!-- \\VersatileCollections\\StringsCollection&#45;&gt;\\VersatileCollections\\ScalarsCollection -->
    <g
       id="edge8"
       class="edge"
       transform="matrix(0.78481282,0,0,1.0807582,293.41152,53.864785)">
      <title
         id="title4318">\\VersatileCollections\\StringsCollection-&gt;\\VersatileCollections\\ScalarsCollection</title>
      <path
         d="m 984.451,-752.918 c -27.211,10.528 -62.211,24.028 -93.364,35.918 -4.49,1.714 -9.141,3.483 -13.817,5.258"
         id="path4320"
         inkscape:connector-curvature="0"
         style="fill:none;stroke:#000000" />
      <polygon
         points="867.68,-708.108 875.79,-714.925 878.271,-708.379 "
         id="polygon4322"
         style="fill:none;stroke:#000000" />
    </g>
    <!-- \\VersatileCollections\\ObjectsCollection -->
    <g
       id="node15"
       class="node"
       transform="translate(99.005517,-4.2849259)">
      <title
         id="title4325">\\VersatileCollections\\ObjectsCollection</title>
      <polygon
         points="884.087,-726 884.087,-762 753.087,-762 753.087,-726 "
         id="polygon4327"
         style="fill:none;stroke:#000000" />
      <text
         x="818.58698"
         y="-741.20001"
         font-size="11.00"
         id="text4329"
         style="font-size:11px;font-family:Courier, monospace;text-anchor:middle">ObjectsCollection</text>
    </g>
    <!-- \\VersatileCollections\\ObjectsCollection&#45;&gt;\\VersatileCollections\\StrictlyTypedCollectionInterface -->
    <g
       id="edge9"
       class="edge"
       transform="matrix(0.84191762,0,0,1.0044552,218.17982,3.4294045)">
      <title
         id="title4332">\\VersatileCollections\\ObjectsCollection-&gt;\\VersatileCollections\\StrictlyTypedCollectionInterface</title>
      <path
         d="m 752.898,-730.513 c -29.465,6.144 -64.962,13.544 -97.51,20.331"
         id="path4334"
         inkscape:connector-curvature="0"
         style="fill:none;stroke:#000000;stroke-dasharray:1, 5" />
      <polygon
         points="654.466,-713.566 655.895,-706.713 645.391,-708.098 "
         id="polygon4336"
         style="fill:none;stroke:#000000" />
    </g>
    <!-- \\VersatileCollections\\IntsCollection -->
    <g
       id="node16"
       class="node">
      <title
         id="title4339">\\VersatileCollections\\IntsCollection</title>
      <polygon
         fill="none"
         stroke="black"
         points="1409.09,-816 1298.09,-816 1298.09,-780 1409.09,-780 1409.09,-816"
         id="polygon4341" />
      <text
         text-anchor="middle"
         x="1353.59"
         y="-795.2"
         font-family="Courier,monospace"
         font-size="11.00"
         id="text4343">IntsCollection</text>
    </g>
    <!-- \\VersatileCollections\\IntsCollection&#45;&gt;\\VersatileCollections\\NumericsCollection -->
    <!-- \\VersatileCollections\\GenericCollection -->
    <g
       id="node17"
       class="node"
       transform="translate(35.430605)">
      <title
         id="title4353">\\VersatileCollections\\GenericCollection</title>
      <polygon
         points="623.087,-726 623.087,-762 492.087,-762 492.087,-726 "
         id="polygon4355"
         style="fill:none;stroke:#000000" />
      <text
         x="557.58698"
         y="-741.20001"
         font-size="11.00"
         id="text4357"
         style="font-size:11px;font-family:Courier, monospace;text-anchor:middle">GenericCollection</text>
    </g>
    <!-- \\VersatileCollections\\CollectionInterface -->
    <g
       id="node22"
       class="node"
       transform="matrix(1.2199465,0,0,1,-49.287153,0)">
      <title
         id="title4360">\\VersatileCollections\\CollectionInterface</title>
      <polygon
         points="224.087,-735 224.087,-699 369.087,-699 369.087,-735 "
         id="polygon4362"
         style="fill:none;stroke:#000000" />
      <text
         x="296.58701"
         y="-714.20001"
         font-size="11.00"
         id="text4364"
         style="font-size:11px;font-family:Courier, monospace;text-anchor:middle">CollectionInterface</text>
    </g>
    <!-- \\VersatileCollections\\GenericCollection&#45;&gt;\\VersatileCollections\\CollectionInterface -->
    <g
       id="edge11"
       class="edge"
       transform="matrix(1.0259066,0,0,1.3635976,21.438128,266.98159)">
      <title
         id="title4367">\\VersatileCollections\\GenericCollection-&gt;\\VersatileCollections\\CollectionInterface</title>
      <path
         d="m 491.898,-737.256 c -34.102,3.555 -76.283,7.952 -112.621,11.74"
         id="path4369"
         inkscape:connector-curvature="0"
         style="fill:none;stroke:#000000;stroke-dasharray:1, 5" />
      <polygon
         points="369.194,-724.465 378.777,-728.983 379.503,-722.021 "
         id="polygon4371"
         style="fill:none;stroke:#000000" />
    </g>
    <!-- \\VersatileCollections\\ResourcesCollection -->
    <g
       id="node18"
       class="node"
       transform="translate(91.433826,3.4287685)">
      <title
         id="title4374">\\VersatileCollections\\ResourcesCollection</title>
      <polygon
         points="746.087,-654 746.087,-618 891.087,-618 891.087,-654 "
         id="polygon4376"
         style="fill:none;stroke:#000000" />
      <text
         x="818.58698"
         y="-633.20001"
         font-size="11.00"
         id="text4378"
         style="font-size:11px;font-family:Courier, monospace;text-anchor:middle">ResourcesCollection</text>
    </g>
    <!-- \\VersatileCollections\\ResourcesCollection&#45;&gt;\\VersatileCollections\\StrictlyTypedCollectionInterface -->
    <g
       id="edge12"
       class="edge"
       transform="matrix(0.98532288,0,0,1.6050107,102.20349,412.06134)">
      <title
         id="title4381">\\VersatileCollections\\ResourcesCollection-&gt;\\VersatileCollections\\StrictlyTypedCollectionInterface</title>
      <path
         d="m 745.785,-650.97 c -27.977,-5.833 -60.469,-12.608 -90.454,-18.859"
         id="path4383"
         inkscape:connector-curvature="0"
         style="fill:none;stroke:#000000;stroke-dasharray:1, 5" />
      <polygon
         points="655.773,-673.312 654.344,-666.46 645.269,-671.927 "
         id="polygon4385"
         style="fill:none;stroke:#000000" />
    </g>
    <!-- \\VersatileCollections\\ScalarsCollection&#45;&gt;\\VersatileCollections\\StrictlyTypedCollectionInterface -->
    <g
       id="edge13"
       class="edge"
       transform="translate(94.862594,1.1429228)">
      <title
         id="title4388">\\VersatileCollections\\ScalarsCollection-&gt;\\VersatileCollections\\StrictlyTypedCollectionInterface</title>
      <path
         d="m 752.898,-690 c -20.911,0 -44.86,0 -68.636,0"
         id="path4390"
         inkscape:connector-curvature="0"
         style="fill:none;stroke:#000000;stroke-dasharray:1, 5" />
      <polygon
         points="674.092,-690 684.092,-693.5 684.092,-686.5 "
         id="polygon4392"
         style="fill:none;stroke:#000000" />
    </g>
    <!-- \\VersatileCollections\\CallablesCollection -->
    <g
       id="node20"
       class="node"
       transform="translate(92.576749,4.5716913)">
      <title
         id="title4395">\\VersatileCollections\\CallablesCollection</title>
      <polygon
         points="746.087,-600 746.087,-564 891.087,-564 891.087,-600 "
         id="polygon4397"
         style="fill:none;stroke:#000000" />
      <text
         x="818.58698"
         y="-579.20001"
         font-size="11.00"
         id="text4399"
         style="font-size:11px;font-family:Courier, monospace;text-anchor:middle">CallablesCollection</text>
    </g>
    <!-- \\VersatileCollections\\CallablesCollection&#45;&gt;\\VersatileCollections\\StrictlyTypedCollectionInterface -->
    <g
       id="edge17"
       class="edge"
       transform="translate(70.041749,4.7146913)">
      <title
         id="title4402">\\VersatileCollections\\CallablesCollection-&gt;\\VersatileCollections\\StrictlyTypedCollectionInterface</title>
      <path
         d="m 768.622,-600.143 c -7.568,-2.904 -15.278,-5.921 -22.535,-8.857 -47.123,-19.063 -100.264,-42.176 -137.908,-58.825"
         id="path4404"
         inkscape:connector-curvature="0"
         style="fill:none;stroke:#000000;stroke-dasharray:1, 5" />
      <polygon
         points="606.68,-664.661 598.956,-671.912 609.516,-671.06 "
         id="polygon4406"
         style="fill:none;stroke:#000000" />
    </g>
    <!-- \\VersatileCollections\\StrictlyTypedCollectionInterface&#45;&gt;\\VersatileCollections\\CollectionInterface -->
    <g
       id="edge19"
       class="edge"
       transform="matrix(1.8548167,0,0,0.94978421,-282.70527,-24.966981)">
      <title
         id="title4409">\\VersatileCollections\\StrictlyTypedCollectionInterface-&gt;\\VersatileCollections\\CollectionInterface</title>
      <path
         d="m 440.722,-702.079 c -20.76,-2.164 -41.992,-4.377 -61.531,-6.414"
         id="path4411"
         inkscape:connector-curvature="0"
         style="fill:none;stroke:#000000" />
      <polygon
         points="378.722,-705.023 369.139,-709.541 379.448,-711.985 "
         id="polygon4413"
         style="fill:none;stroke:#000000" />
    </g>
    <!-- \\ArrayAccess -->
    <g
       id="node26"
       class="node">
      <title
         id="title4416">\\ArrayAccess</title>
      <ellipse
         fill="none"
         stroke="black"
         cx="76.0433"
         cy="-771"
         rx="60.3893"
         ry="18"
         id="ellipse4418" />
      <text
         text-anchor="middle"
         x="76.0433"
         y="-767.3"
         font-family="Times New Roman,serif"
         font-size="14.00"
         fill="gray"
         id="text4420">\ArrayAccess</text>
    </g>
    <!-- \\VersatileCollections\\CollectionInterface&#45;&gt;\\ArrayAccess -->
    <g
       id="edge20"
       class="edge">
      <title
         id="title4423">\\VersatileCollections\\CollectionInterface-&gt;\\ArrayAccess</title>
      <path
         fill="none"
         stroke="black"
         d="M224.027,-734.682C194.425,-741.996 160.614,-750.35 132.889,-757.201"
         id="path4425" />
      <polygon
         fill="none"
         stroke="black"
         points="131.838,-753.855 122.969,-759.652 133.517,-760.651 131.838,-753.855"
         id="polygon4427" />
    </g>
    <!-- \\Countable -->
    <g
       id="node27"
       class="node">
      <title
         id="title4430">\\Countable</title>
      <ellipse
         fill="none"
         stroke="black"
         cx="76.0433"
         cy="-717"
         rx="50.0912"
         ry="18"
         id="ellipse4432" />
      <text
         text-anchor="middle"
         x="76.0433"
         y="-713.3"
         font-family="Times New Roman,serif"
         font-size="14.00"
         fill="gray"
         id="text4434">\Countable</text>
    </g>
    <!-- \\VersatileCollections\\CollectionInterface&#45;&gt;\\Countable -->
    <g
       id="edge21"
       class="edge">
      <title
         id="title4437">\\VersatileCollections\\CollectionInterface-&gt;\\Countable</title>
      <path
         fill="none"
         stroke="black"
         d="M224.027,-717C195.659,-717 163.425,-717 136.387,-717"
         id="path4439" />
      <polygon
         fill="none"
         stroke="black"
         points="136.297,-713.5 126.297,-717 136.297,-720.5 136.297,-713.5"
         id="polygon4441" />
    </g>
    <!-- \\IteratorAggregate -->
    <g
       id="node28"
       class="node">
      <title
         id="title4444">\\IteratorAggregate</title>
      <ellipse
         fill="none"
         stroke="black"
         cx="76.0433"
         cy="-663"
         rx="76.0865"
         ry="18"
         id="ellipse4446" />
      <text
         text-anchor="middle"
         x="76.0433"
         y="-659.3"
         font-family="Times New Roman,serif"
         font-size="14.00"
         fill="gray"
         id="text4448">\IteratorAggregate</text>
    </g>
    <!-- \\VersatileCollections\\CollectionInterface&#45;&gt;\\IteratorAggregate -->
    <g
       id="edge22"
       class="edge">
      <title
         id="title4451">\\VersatileCollections\\CollectionInterface-&gt;\\IteratorAggregate</title>
      <path
         fill="none"
         stroke="black"
         d="M224.027,-699.318C196.652,-692.554 165.678,-684.901 139.246,-678.37"
         id="path4453" />
      <polygon
         fill="none"
         stroke="black"
         points="139.903,-674.927 129.355,-675.926 138.224,-681.722 139.903,-674.927"
         id="polygon4455" />
    </g>
    <!-- \\VersatileCollections\\CollectionInterfaceImplementationTrait -->
    <g
       id="node23"
       class="node"
       transform="translate(-987.48535,-528.03034)">
      <title
         id="title4458">\\VersatileCollections\\CollectionInterfaceImplementationTrait</title>
      <polygon
         points="1490.09,-114 1490.09,-150 1217.09,-150 1217.09,-114 "
         id="polygon4460"
         style="fill:none;stroke:#000000" />
      <text
         x="1353.59"
         y="-129.2"
         font-size="11.00"
         id="text4462"
         style="font-size:11px;font-family:Courier, monospace;text-anchor:middle">CollectionInterfaceImplementationTrait</text>
    </g>
    <!-- \\VersatileCollections\\StrictlyTypedCollectionInterfaceImplementationTrait -->
    <g
       id="node24"
       class="node"
       transform="translate(-723.47015,-491.45682)">
      <title
         id="title4465">\\VersatileCollections\\StrictlyTypedCollectionInterfaceImplementationTrait</title>
      <polygon
         points="1534.09,-60 1534.09,-96 1173.09,-96 1173.09,-60 "
         id="polygon4467"
         style="fill:none;stroke:#000000" />
      <text
         x="1353.59"
         y="-75.199997"
         font-size="11.00"
         id="text4469"
         style="font-size:11px;font-family:Courier, monospace;text-anchor:middle">StrictlyTypedCollectionInterfaceImplementationTrait</text>
    </g>
    <g
       id="edge1-7"
       class="edge"
       transform="matrix(0.52065187,0,0,1.0195921,625.9043,-26.770962)">
      <title
         id="title4255-6">\\VersatileCollections\\FloatsCollection-&gt;\\VersatileCollections\\NumericsCollection</title>
      <path
         d="m 1290.98,-738.794 c -51.21,4.328 -124.39,10.512 -179.73,15.188"
         id="path4257-2"
         inkscape:connector-curvature="0"
         style="fill:none;stroke:#000000" />
      <polygon
         points="1101.14,-722.751 1110.81,-727.081 1111.4,-720.105 "
         id="polygon4259-8"
         style="fill:none;stroke:#000000" />
    </g>
  </g>
</svg>
